<?xml version="1.0" encoding="utf-8"?>
<!-- Generator: Adobe Illustrator 24.3.0, SVG Export Plug-In . SVG Version: 6.00 Build 0)  -->
<svg version="1.1" id="Layer_1" xmlns="http://www.w3.org/2000/svg" xmlns:xlink="http://www.w3.org/1999/xlink" x="0px" y="0px"
	 viewBox="0 0 512 512" style="enable-background:new 0 0 512 512;" xml:space="preserve">
<style type="text/css">
	.st0{fill:none;}
	.st1{fill:#FFFFFF;}
</style>
<g id="XMLID_1_">
	<rect id="XMLID_2_" class="st0" width="512" height="512"/>
	<path id="XMLID_3_" class="st1" d="M305.8,334.13h42.78l-68.17-177.03h-47.13L165.1,334.13h42.78l11.22-30.02h64.39l-11.64-33.24
		h-42.5l27.63-76.17L305.8,334.13z M446.77,202.98c-1.54-5.33-7.15-8.56-12.62-7.15c-5.33,1.54-8.56,7.15-7.15,12.62
		c4.21,15.43,6.45,31.42,6.45,47.41c0,97.77-79.54,177.45-177.45,177.45S78.55,353.77,78.55,256S158.23,78.55,256,78.55
		c41.38,0,81.64,14.87,113.2,40.96c-1.26,2.95-1.96,6.17-1.96,9.54c0,13.61,10.94,24.83,24.83,24.83
		c13.61,0,24.83-10.94,24.83-24.83s-10.94-24.83-24.83-24.83c-2.67,0-5.19,0.42-7.57,1.26c-35.63-30.44-81.22-47.55-128.35-47.55
		C147.01,57.93,58.07,146.73,58.07,256S146.87,454.07,256,454.07S454.07,365.13,454.07,256
		C454.07,238.04,451.54,220.23,446.77,202.98z"/>
</g>
</svg>
